<?xml version="1.0" encoding="UTF-8"?>
<svg id="Layer_1" xmlns="http://www.w3.org/2000/svg" version="1.1" viewBox="0 0 368.8 482.1">
  <!-- Generator: Adobe Illustrator 30.2.1, SVG Export Plug-In . SVG Version: 2.1.1 Build 1)  -->
  <defs>
    <style>
      .st0 {
        fill: #5c7928;
      }

      .st1 {
        fill: #174a22;
      }

      .st2 {
        fill: #58782d;
      }

      .st3 {
        fill: #3e5b1f;
      }

      .st4 {
        fill: #879d48;
      }

      .st5 {
        fill: #194b22;
      }
    </style>
  </defs>
  <path class="st5" d="M285.7,5.8c1.9,1.8-12.1,27.6-14.4,31-15.5,23.7-43,41.8-68.9,52.7-9.4,3.9-20.6,6.1-29.3,10-4,1.8-6.9,3.9-9,7.8,8.4.6,17.3-2.2,25.4-4.5,19.9-5.6,38.7-15.3,59.3-18.3,29-4.3,62.6-1.8,88.3,13l-8.2,5.3c-24.9,11.5-52.8,15.7-80,12.3-6.6-.8-14-2.6-19.5-3.8-7.5-1.7-20.7-5.7-27.5-5.9-.4,0-.3.3-1.1.4-8.1,1.7-16.5,2.4-24.6,4.7,3,2.6,7.1,4.1,10.5,6.5.9.6,1.2,2.5,2.2,2.7,1.4.3,11.4-3.1,16.7-2.6,45.6,4.6,67.9,83.4,26.8,105.1-45.3,23.8-92.3-50.3-59.4-90.3,1.3-1.6,9.1-7.6,8.9-8.8-6-6.8-18.8-7.2-27.1-4.7-9.3,2.7-26,16.7-33.5,23.6-4.7,4.3-9.7,9.6-13.2,14.8.7,1.3,2.5,0,3.4-.3,11.6-3.5,21.3-10,34.4-10.5,1.9-.1,5-.9,4.2,1.9-8.9,4.6-17.4,10.1-26.5,14.2-17,7.7-26,5.1-34.9,24-2,4.2-7.8,24.4-8.8,25.3-1.4,1.2-11.5-3.1-11.9-3.7-2.1-3.2,12.6-29.9,15.4-34.4,19.8-31.9,41.5-40.8,68.2-63.1,14.3-11.9,19.2-27.1,29.6-42,15.1-21.7,35.3-38.9,59.5-49.9,13.7-6.4,29.9-12.2,45-12.5ZM251.5,30.5c2.8-2.3,7.1-4.6,8.5-7.9-31,16.8-59.4,40.9-80.9,68.7,16.1-10.4,30-24.5,44.6-37.2,8.6-7.4,18.4-15.9,27.8-23.6ZM269.8,95.5c-17.1.5-34,3.2-51,4.6-2.1-.2-1.1,1.2-1.4,1.9-.2.4-2.4.8.5.9,9,.4,18.1-.3,27.1,0,1.3-1.7-4.6-.9-5.1-.9l61.7-3.7c1.5-1.1,0-1.7-1.4-1.9-3.7-.4-8.8-.8-12.6-.9-5.7-.2-12-.1-17.8,0ZM210,123.6c-1-.7-12.5.5-15,0-1.8,6.6,5.1,6,5.6,6.6,2.8,3.4-11.2,7.6-14,6.5-.7-.7,3.1-7.3-1.4-7.5-8.3,6.3-14.2,17.3-15.3,27.7-3,28.3,20.7,66.7,52.3,61.6,27-4.3,28.9-42.6,21-63.2-3.8-10-16.6-25.7-26.9-29.2-4.2-1.4-3.2-.4-6.3-2.5Z"/>
  <path class="st5" d="M74.9,253c19.3,16.1,17.9,51.8-1.7,67.2-33.3,26.2-79.5-7.6-65.5-47.8,9.8-28,44-38.7,67.2-19.4ZM41.4,251.9c-29,4.9-20.8,84,15.9,67.3,20.3-9.2,19.6-73.3-15.9-67.3Z"/>
  <path class="st5" d="M326.9,252.6v29c3.7-.1,15.8.2,17.7-2.4,1.6-2.2.9-7.4,5.2-7,.8.1,2.3.9,2.3,1.5v23.8c0,.2-3.6,1.2-4.7.5-1.3-.8-2-4.7-3.3-6.1-3.6-3.9-12.4-2.6-17.3-2.8v26.7c0,5.2,19.7,3.5,23.6,2.1,7.7-2.8,7.3-13.2,11.6-13.5.7-.1,2.8.4,3,.8,1.3,2.1-1.4,20.5-5.2,22.1l-57.9-.7c-5-7,8.3-4.8,7.9-10.9-1-18.1,1.6-38.2.1-56.1-.1-1.8-.4-4.6-1.5-6-1.7-2.2-12.5-3.7-5.4-8.3h54.8c3.5,1.2,3.3,18,1.6,20-6.2,7.1-5.1-12.6-12.6-12.6h-19.9Z"/>
  <path class="st5" d="M290.1,350.2c22,12.9,19.9,51.7-3.2,62.1-11.4,5.1-32.6,3.1-45.6,3-1.7,0-3.4,1-4.7.9-2.8-.2-6.1-3.1-2.8-5.6,3.5-2.6,7.3,1.2,8.1-7.8.9-10.5,1.1-33.6-.2-43.9-1.1-9.5-6.1-6.1-7.9-8.9-4.1-6.4,12.6-3.7,15.1-3.7,13.6-.6,28.7-3.4,41.2,3.9ZM256.7,354.6c-.1.1-1.8-1.1-1.9-.9v50l1.9-7c.6,4.2-2.2,12,3.5,12.9,1,.2,9.3-.7,10.8-.9,25.5-4.9,24-52.8-.8-55.8-2.4-.3-11-.6-12.8-.1-1,.2-.6,1.7-.7,1.8Z"/>
  <path class="st5" d="M165.4,409.4c-22.5-18.9-11.6-58.2,16.5-64.7,31.4-7.3,55.4,26.2,39.8,53.8-11.2,19.8-38.5,25.9-56.3,10.9ZM184.5,351c-16.9,3.5-17.1,34.2-11.4,46.5,6.3,13.8,24.3,19.5,32.6,4.6,9.1-16.4,4.7-56.4-21.2-51.1Z"/>
  <path class="st5" d="M129.2,350.2c1.3.9,5.9,5.3,6.9,6.7,12.6,16.8,10.2,42.1-8.5,54.2-26.3,17-59.2-1.1-57-32.6,2.1-28.7,34.6-44.4,58.6-28.3ZM119.9,355.8c-4.9-5.2-13.4-6.3-20.1-4.4-19.6,5.7-19,63.3,12.4,59.1,20-2.6,18.6-42.9,7.7-54.7Z"/>
  <path class="st5" d="M267.2,245.3c1.1-.7,24.6-.6,26.3-.2,1,.2,1.7,3.2,1.5,4.1-.4,1.5-5.6,3.1-7.4,4.8-1.6,1.5-3.5,4.7-4.5,6.7-10.5,20.3-15.9,43.6-25.3,64.4-4,6.1-8,4.3-10.8-1.4-11-22.9-17.2-48.9-30.4-70.6-3.5-1.3-10.1-6.6-3.3-7.9,3.9-.8,23.7-.6,28.1,0,1.3.2,2.4.2,3.3,1.4,3.8,4.5-4.8,5-6.7,6.6-1.5,1.3.9,7.6,1.5,9.8,3,10.3,8.9,24.4,13.1,34.6,1.6,3.9,3.4,11,6.5,4.7,3.3-6.7,14.9-38.2,15.3-44.6.6-7.9-6-4.6-7.9-7.8-.7-1.1,0-4.2.7-4.6Z"/>
  <path class="st5" d="M123,316.7c1.3,4.1,22.1,2.7,25.6-1.5,1.5-1.8,4.1-9.7,4.9-10.3,2-1.5,5.5-.3,5.6,2.5,0,1.1-2.3,14-2.8,15.6-.3,1.1-2.1,3.9-3.2,4.3-15.2-.6-30.5-1.1-45.7-.8-3,0-9.3,2.4-11.2-.9-2.7-4.5,9.7-4.4,8.9-9.9-1.1-18.4,1.7-38.9.1-57-.8-8.6-4.4-5-8-7.8-2-1.6-1.6-4.2.5-5.2,1.5-.7,29.8-1,32.1-.3,8.7,2.5-4.2,7.4-6.8,8.7v62.6Z"/>
  <path class="st5" d="M356.6,364.6c-.4.5-1.5.8-2.2.9-6.2.5-2.2-13-11.1-14.6-5.9-1.1-11.9-.9-14.4,5.2-7.3,18.1,28,16.9,31.5,33.8,4.7,22.7-21.4,32.4-39.8,24.8-5.1-2.1-5.5-2.9-6.5-8.5-.6-3.4-2.3-11.8,1.3-13.2,4.6-1.2,6.8,11.5,9.6,14.4,6.9,7.3,26.2,3.1,22-10.8-3.3-11.1-26.4-10.9-30.8-24.3-2.3-6.9-.4-17.8,5.1-22.9,6.8-6.4,32.5-8.7,35.4,1.1.5,2.2,1.2,12.5-.1,14.1Z"/>
  <path class="st5" d="M17.8,415.4c-1.1,0-4.7,2.3-5.1-2.3-.4-5.7,6.3-.5,7.4-7.6,2.3-14.6-1.6-34.3,0-49.5,0-5.7-14-5.1-4.2-10.7l44.7.2c3.2,1.1,3.4,15.3,1.1,17.6-5.2,5.1-5-10.3-8.4-10.3h-18.2v24.3c3.3-.4,11.5,1.1,13.8-1.2,1.4-1.4,1.5-6.3,4.4-6.3s2.4.9,2.4,1.4v18.7c0,.3-2.2,2.5-3.2,2.3-2.6-1.4-2.6-5.7-5.3-7-2.9-1.3-9.1-1.6-12.1-.5v24.3c0,.4,6.7.8,8,1.8,2,1.5,1.4,4.8-.1,4.8-8.4,0-16.9,0-25.3,0Z"/>
  <path class="st5" d="M203.3,250.7c-.5.7-6,1-7.4,2.4s-1.6,5.1-1.7,6.7c-1.4,12.9-1.2,38.2-.2,51.3.1,1.6.8,7,1.4,7.9,1.4,2.1,10,1,8.8,5.9-1.1,4.4-7.7,1.6-10.6,1.5-7.7-.2-15.5,0-23.2.8-9.1-6.2,2.6-5.8,4.9-7.8,1.1-1,1.7-4.9,1.9-6.6,1.3-12.9,1.2-39.3,0-52.4-1-11.9-4.3-6.2-9-9.7-2-1.5-1.6-4.2.5-5.2,1.5-.7,29.4-1,32.3-.5,2.7.6,3.3,4.1,2.3,5.7Z"/>
  <path class="st5" d="M320.1,450.6c-.4-2.4-4.2-9.9-6.1-11.1-1.2-.7-3.2-1.5-4.6-2.1-2.4-1-5.1-1.3-9.2-1.6-3.2-.2-17.5-.4-19.2,1-1.7.4-.6.5,0,.9.5.4,1.4.5,1.9.9.3.3,1.8,1.7,1.9,1.9.2.5-.1,2,0,2.8v.9c.3,5.6.2,12.1,0,17.8v.9c0,.9.1,1.9,0,2.8v.9c-.8,7.2-3.8,4.4-4.7,5.6-.5.7.9,2.8,1.4,2.8h19.6c3.6,0,11.4-3.8,14.1-6.5,4.3-4.2,5.9-11.9,4.9-17.9ZM294.8,471.3c-1.1-.3-1.1-1-1.5-1.7v-18.7c.1-3.7-.1-7.5,0-11.2,24.5-6.3,23.3,37.8,1.5,31.6Z"/>
  <path class="st5" d="M101.5,435.9c1.1,3.3-2.1,2.7-2.7,4.3-.9,2.7,7.6,23.4,8.8,23.7,1.4.3,2-1.2,2.5-2.1,1.4-2.5,7.8-19.6,7.3-21.5-.1-.6-4.7-2.5-2.8-4.4.5-.5,12.2,0,13.1.9,2,2.2-4.9,2.2-5.1,3.8-5,10-8,22.3-12.8,32.1-1.7,3.6-3.1,4.6-6.5,1.8l-13.7-32.7c-1.4-2.9-5.9-1.7-4.9-5.8h16.8Z"/>
  <path class="st5" d="M156.7,439.7v29.5c0,2.2,3.6,3.5,5.6,3.3-.2,4.9-5.6,1.7-8.9,1.8-1.8,0-8.4,1.6-8.9,1-.2-.2-.3-2.3.6-2.9,1-.7,4.1-.6,4.1-.9v-31.8l-8.4.5c-2.7.4-3.4,7.8-5.1,7-2.1-1-1.1-11.2-.5-11.2h34.1c2.1,0,2.1,11.2,0,11.2s-2-5.2-3.8-6.5c-2.3-1.6-6.1-.9-8.8-1Z"/>
  <path class="st5" d="M213.7,471.5c4.7-.3,10.2,1.4,13.5-2.8,1.8-2.4.3-4.7,5.2-3.7.4.4-2,10.3-3.3,10.3h-28.5c-1-4.5,4-2.6,4.7-6.1.5-2.5.4-27.4-.5-28.6-.5-.6-4.9-1.8-5.2-3.7,3.9,0,13.8-1.9,17.1-.8,5.1,1.6-3.1,4.5-3.1,5v30.4h0Z"/>
  <path class="st5" d="M271.7,447.2c-3,2.9-3.9-5.7-5.3-6.6-2.2-1.4-6.2-.7-8.7-.8v30.4c0,1.2,5.7.7,3.7,5.1-3.4.7-6.7-.6-9.8-.7-2,0-6.5,2.5-6.6-1.1,1.1-1.6,4.2-1.6,4.2-1.9v-31.8c-3.2,0-7.2-.5-9.4,2.3-1.5,1.9-.8,5.1-4.6,4.2l.9-10.3c1.6-.8,3.4.9,3.7.9,8.5.8,17.1-1,25.2-.9,1.7,0,5.1-.5,6.1.9.8.7,1,9.9.6,10.3Z"/>
  <path class="st5" d="M68.3,435.9c1,0,7.2,2.5,8,3.2,12,10.9-3.4,24-15.9,21.1,0,1.5.5,10.8,1,11.2.7.7,4.8-1.8,4.2,3.7-5.2-2.4-11,.5-16.4-.9-.5-2.5,2.4-2.2,3.1-4,1.2-2.9,1.1-28.8-.6-30.4-.6-.6-2.8-.3-3.5-1.7-.4-.8,1.1-2.3,1.4-2.3,5.5.1,13.6-.6,18.7.1ZM61.3,457.4c14.1.7,14.3-19.9,0-17.8v17.8Z"/>
  <path class="st0" d="M210,123.6c3.1,2.1,2.1,1.1,6.3,2.6,10.3,3.5,23.1,19.3,26.9,29.2,7.9,20.6,6,58.9-21,63.2-31.6,5-55.3-33.4-52.3-61.6,1.1-10.4,7.1-21.4,15.3-27.7,4.5.1.7,6.8,1.4,7.5,2.9,1.1,16.9-3.1,14-6.5-.5-.6-7.4,0-5.6-6.6,2.5.4,13.9-.8,15-.1ZM228.6,155.3c6.1-3.9-11.2-27.5-18.6-20-6.2,6.2,12.1,24.1,18.6,20ZM181,145.1c-1.2-1.4-4.5,4.2-4.8,5-11.4,23.6,13.3,68.6,42.2,63.3.3-3.2-3.3-2.6-5.3-3.5-14.5-6.8-29.2-26.4-32.8-42.1-1.9-8.4.2-14.4.7-22.7Z"/>
  <path class="st2" d="M269.8,95.5c5.1,1.6,12.7,1.6,17.8,0,3.8.2,8.9.5,12.6.9,1.4.2,2.8.7,1.4,1.9l-61.7,3.7c-7.5-.1-15,.1-22.4,0,.3-.7-.7-2.1,1.4-1.9,17-1.4,33.9-4.1,50.9-4.6Z"/>
  <path class="st1" d="M239.9,102.1c.6,0,6.4-.7,5.1.9-9-.3-18.1.4-27.1,0-2.8-.1-.6-.5-.5-.9,7.5,0,15-.1,22.5,0Z"/>
  <path class="st0" d="M287.6,95.5c-5,1.6-12.7,1.6-17.8,0,5.8,0,12.1-.2,17.8,0Z"/>
  <path class="st2" d="M251.5,30.5c-9.4,7.7-19.2,16.2-27.8,23.7-14.6,12.7-28.5,26.9-44.6,37.2,21.5-27.8,49.9-52,80.9-68.7-1.4,3.2-5.7,5.5-8.5,7.8Z"/>
  <path class="st5" d="M256.7,354.6v42.1l-1.9,7v-50c.2-.2,1.9.9,1.9.9Z"/>
  <path class="st3" d="M181,145.1c-.5,8.3-2.6,14.3-.7,22.6,3.5,15.6,18.2,35.3,32.8,42.1,2,.9,5.6.4,5.3,3.5-29,5.3-53.6-39.7-42.2-63.3.3-.7,3.6-6.3,4.8-4.9Z"/>
  <path class="st4" d="M228.6,155.3c-6.5,4.1-24.7-13.8-18.6-20,7.3-7.5,24.6,16.1,18.6,20Z"/>
  <path class="st5" d="M256.7,394.8v-37.4c0,12.2.7,25.3,0,37.4Z"/>
</svg>