<?xml version="1.0" encoding="utf-8"?>
<!-- Generator: Adobe Illustrator 29.8.1, SVG Export Plug-In . SVG Version: 9.03 Build 0)  -->
<svg version="1.1" id="Layer_1" xmlns="http://www.w3.org/2000/svg" xmlns:xlink="http://www.w3.org/1999/xlink" x="0px" y="0px"
	 viewBox="0 0 595.3 841.9" style="enable-background:new 0 0 595.3 841.9;" xml:space="preserve">
<style type="text/css">
	.st0{fill:#194B22;}
	.st1{fill:#5C7928;}
	.st2{fill:#58782D;}
	.st3{fill:#174A22;}
	.st4{fill:#3E5B1F;}
	.st5{fill:#879D48;}
</style>
<g>
	<path class="st0" d="M384.4,121c1.9,1.8-12.1,27.6-14.4,31c-15.5,23.7-43,41.8-68.9,52.7c-9.4,3.9-20.6,6.1-29.3,10
		c-4,1.8-6.9,3.9-9,7.8c8.4,0.6,17.3-2.2,25.4-4.5c19.9-5.6,38.7-15.3,59.3-18.3c29-4.3,62.6-1.8,88.3,13l-8.2,5.3
		c-24.9,11.5-52.8,15.7-80,12.3c-6.6-0.8-14-2.6-19.5-3.8c-7.5-1.7-20.7-5.7-27.5-5.9c-0.4,0-0.3,0.3-1.1,0.4
		c-8.1,1.7-16.5,2.4-24.6,4.7c3,2.6,7.1,4.1,10.5,6.5c0.9,0.6,1.2,2.5,2.2,2.7c1.4,0.3,11.4-3.1,16.7-2.6
		c45.6,4.6,67.9,83.4,26.8,105.1c-45.3,23.8-92.3-50.3-59.4-90.3c1.3-1.6,9.1-7.6,8.9-8.8c-6-6.8-18.8-7.2-27.1-4.7
		c-9.3,2.7-26,16.7-33.5,23.6c-4.7,4.3-9.7,9.6-13.2,14.8c0.7,1.3,2.5,0,3.4-0.3c11.6-3.5,21.3-10,34.4-10.5c1.9-0.1,5-0.9,4.2,1.9
		c-8.9,4.6-17.4,10.1-26.5,14.2c-17,7.7-26,5.1-34.9,24c-2,4.2-7.8,24.4-8.8,25.3c-1.4,1.2-11.5-3.1-11.9-3.7
		c-2.1-3.2,12.6-29.9,15.4-34.4c19.8-31.9,41.5-40.8,68.2-63.1c14.3-11.9,19.2-27.1,29.6-42c15.1-21.7,35.3-38.9,59.5-49.9
		C353.1,127.1,369.3,121.3,384.4,121z M350.2,145.7c2.8-2.3,7.1-4.6,8.5-7.9c-31,16.8-59.4,40.9-80.9,68.7
		c16.1-10.4,30-24.5,44.6-37.2C331,161.9,340.8,153.4,350.2,145.7z M368.5,210.7c-17.1,0.5-34,3.2-51,4.6c-2.1-0.2-1.1,1.2-1.4,1.9
		c-0.2,0.4-2.4,0.8,0.5,0.9c9,0.4,18.1-0.3,27.1,0c1.3-1.7-4.6-0.9-5.1-0.9l61.7-3.7c1.5-1.1,0-1.7-1.4-1.9
		c-3.7-0.4-8.8-0.8-12.6-0.9C380.6,210.5,374.3,210.6,368.5,210.7z M308.7,238.8c-1-0.7-12.5,0.5-15,0c-1.8,6.6,5.1,6,5.6,6.6
		c2.8,3.4-11.2,7.6-14,6.5c-0.7-0.7,3.1-7.3-1.4-7.5c-8.3,6.3-14.2,17.3-15.3,27.7c-3,28.3,20.7,66.7,52.3,61.6
		c27-4.3,28.9-42.6,21-63.2c-3.8-10-16.6-25.7-26.9-29.2C310.8,239.9,311.8,240.9,308.7,238.8z"/>
	<path class="st0" d="M173.6,368.2c19.3,16.1,17.9,51.8-1.7,67.2c-33.3,26.2-79.5-7.6-65.5-47.8
		C116.2,359.6,150.4,348.9,173.6,368.2z M140.1,367.1c-29,4.9-20.8,84,15.9,67.3C176.3,425.2,175.6,361.1,140.1,367.1z"/>
	<path class="st0" d="M425.6,367.8v29c3.7-0.1,15.8,0.2,17.7-2.4c1.6-2.2,0.9-7.4,5.2-7c0.8,0.1,2.3,0.9,2.3,1.5v23.8
		c0,0.2-3.6,1.2-4.7,0.5c-1.3-0.8-2-4.7-3.3-6.1c-3.6-3.9-12.4-2.6-17.3-2.8V431c0,5.2,19.7,3.5,23.6,2.1
		c7.7-2.8,7.3-13.2,11.6-13.5c0.7-0.1,2.8,0.4,3,0.8c1.3,2.1-1.4,20.5-5.2,22.1l-57.9-0.7c-5-7,8.3-4.8,7.9-10.9
		c-1-18.1,1.6-38.2,0.1-56.1c-0.1-1.8-0.4-4.6-1.5-6c-1.7-2.2-12.5-3.7-5.4-8.3l54.8,0c3.5,1.2,3.3,18,1.6,20
		c-6.2,7.1-5.1-12.6-12.6-12.6H425.6z"/>
	<path class="st0" d="M388.8,465.4c22,12.9,19.9,51.7-3.2,62.1c-11.4,5.1-32.6,3.1-45.6,3c-1.7,0-3.4,1-4.7,0.9
		c-2.8-0.2-6.1-3.1-2.8-5.6c3.5-2.6,7.3,1.2,8.1-7.8c0.9-10.5,1.1-33.6-0.2-43.9c-1.1-9.5-6.1-6.1-7.9-8.9
		c-4.1-6.4,12.6-3.7,15.1-3.7C361.2,460.9,376.3,458.1,388.8,465.4z M355.4,469.8c-0.1,0.1-1.8-1.1-1.9-0.9l0,50l1.9-7
		c0.6,4.2-2.2,12,3.5,12.9c1,0.2,9.3-0.7,10.8-0.9c25.5-4.9,24-52.8-0.8-55.8c-2.4-0.3-11-0.6-12.8-0.1
		C355.1,468.2,355.5,469.7,355.4,469.8z"/>
	<path class="st0" d="M264.1,524.6c-22.5-18.9-11.6-58.2,16.5-64.7c31.4-7.3,55.4,26.2,39.8,53.8
		C309.2,533.5,281.9,539.6,264.1,524.6z M283.2,466.2c-16.9,3.5-17.1,34.2-11.4,46.5c6.3,13.8,24.3,19.5,32.6,4.6
		C313.5,500.9,309.1,460.9,283.2,466.2z"/>
	<path class="st0" d="M227.9,465.4c1.3,0.9,5.9,5.3,6.9,6.7c12.6,16.8,10.2,42.1-8.5,54.2c-26.3,17-59.2-1.1-57-32.6
		C171.4,465,203.9,449.3,227.9,465.4z M218.6,471c-4.9-5.2-13.4-6.3-20.1-4.4c-19.6,5.7-19,63.3,12.4,59.1
		C230.9,523.1,229.5,482.8,218.6,471z"/>
	<path class="st0" d="M365.9,360.5c1.1-0.7,24.6-0.6,26.3-0.2c1,0.2,1.7,3.2,1.5,4.1c-0.4,1.5-5.6,3.1-7.4,4.8
		c-1.6,1.5-3.5,4.7-4.5,6.7c-10.5,20.3-15.9,43.6-25.3,64.4c-4,6.1-8,4.3-10.8-1.4c-11-22.9-17.2-48.9-30.4-70.6
		c-3.5-1.3-10.1-6.6-3.3-7.9c3.9-0.8,23.7-0.6,28.1,0c1.3,0.2,2.4,0.2,3.3,1.4c3.8,4.5-4.8,5-6.7,6.6c-1.5,1.3,0.9,7.6,1.5,9.8
		c3,10.3,8.9,24.4,13.1,34.6c1.6,3.9,3.4,11,6.5,4.7c3.3-6.7,14.9-38.2,15.3-44.6c0.6-7.9-6-4.6-7.9-7.8
		C364.5,364,365.2,360.9,365.9,360.5z"/>
	<path class="st0" d="M221.7,431.9c1.3,4.1,22.1,2.7,25.6-1.5c1.5-1.8,4.1-9.7,4.9-10.3c2-1.5,5.5-0.3,5.6,2.5
		c0,1.1-2.3,14-2.8,15.6c-0.3,1.1-2.1,3.9-3.2,4.3c-15.2-0.6-30.5-1.1-45.7-0.8c-3,0-9.3,2.4-11.2-0.9c-2.7-4.5,9.7-4.4,8.9-9.9
		c-1.1-18.4,1.7-38.9,0.1-57c-0.8-8.6-4.4-5-8-7.8c-2-1.6-1.6-4.2,0.5-5.2c1.5-0.7,29.8-1,32.1-0.3c8.7,2.5-4.2,7.4-6.8,8.7V431.9z"
		/>
	<path class="st0" d="M455.3,479.8c-0.4,0.5-1.5,0.8-2.2,0.9c-6.2,0.5-2.2-13-11.1-14.6c-5.9-1.1-11.9-0.9-14.4,5.2
		c-7.3,18.1,28,16.9,31.5,33.8c4.7,22.7-21.4,32.4-39.8,24.8c-5.1-2.1-5.5-2.9-6.5-8.5c-0.6-3.4-2.3-11.8,1.3-13.2
		c4.6-1.2,6.8,11.5,9.6,14.4c6.9,7.3,26.2,3.1,22-10.8c-3.3-11.1-26.4-10.9-30.8-24.3c-2.3-6.9-0.4-17.8,5.1-22.9
		c6.8-6.4,32.5-8.7,35.4,1.1C455.9,467.9,456.6,478.2,455.3,479.8z"/>
	<path class="st0" d="M116.5,530.6c-1.1,0-4.7,2.3-5.1-2.3c-0.4-5.7,6.3-0.5,7.4-7.6c2.3-14.6-1.6-34.3,0.1-49.5
		c0.1-5.7-14-5.1-4.2-10.7l44.7,0.2c3.2,1.1,3.4,15.3,1.1,17.6c-5.2,5.1-5-10.3-8.4-10.3h-18.2v24.3c3.3-0.4,11.5,1.1,13.8-1.2
		c1.4-1.4,1.5-6.3,4.4-6.3c0.8,0,2.4,0.9,2.4,1.4v18.7c0,0.3-2.2,2.5-3.2,2.3c-2.6-1.4-2.6-5.7-5.3-7c-2.9-1.3-9.1-1.6-12.1-0.5V524
		c0,0.4,6.7,0.8,8,1.8c2,1.5,1.4,4.8-0.1,4.8C133.4,530.6,124.9,530.5,116.5,530.6z"/>
	<path class="st0" d="M302,365.9c-0.5,0.7-6,1-7.4,2.4c-0.9,0.9-1.6,5.1-1.7,6.7c-1.4,12.9-1.2,38.2-0.2,51.3c0.1,1.6,0.8,7,1.4,7.9
		c1.4,2.1,10,1,8.8,5.9c-1.1,4.4-7.7,1.6-10.6,1.5c-7.7-0.2-15.5,0-23.2,0.8c-9.1-6.2,2.6-5.8,4.9-7.8c1.1-1,1.7-4.9,1.9-6.6
		c1.3-12.9,1.2-39.3,0-52.4c-1-11.9-4.3-6.2-9-9.7c-2-1.5-1.6-4.2,0.5-5.2c1.5-0.7,29.4-1,32.3-0.5C302.4,360.8,303,364.3,302,365.9
		z"/>
	<path class="st0" d="M418.8,565.8c-0.4-2.4-4.2-9.9-6.1-11.1c-1.2-0.7-3.2-1.5-4.6-2.1c-2.4-1-5.1-1.3-9.2-1.6
		c-3.2-0.2-17.5-0.4-19.2,1c-1.7,0.4-0.6,0.5,0,0.9c0.5,0.4,1.4,0.5,1.9,0.9c0.3,0.3,1.8,1.7,1.9,1.9c0.2,0.5-0.1,2,0,2.8
		c0,0.3,0,0.6,0,0.9c0.3,5.6,0.2,12.1,0,17.8c0,0.3,0,0.6,0,0.9c0,0.9,0.1,1.9,0,2.8c0,0.3,0,0.6,0,0.9c-0.8,7.2-3.8,4.4-4.7,5.6
		c-0.5,0.7,0.9,2.8,1.4,2.8h19.6c3.6,0,11.4-3.8,14.1-6.5C418.2,579.5,419.8,571.8,418.8,565.8z M393.5,586.5
		c-1.1-0.3-1.1-1-1.5-1.7c0-2.5,0-5,0-7.5c0-1.9,0-3.7,0-5.6c0-0.6,0-1.3,0-1.9c0-1.2,0-2.5,0-3.7c0.1-3.7-0.1-7.5,0-11.2
		C416.5,548.6,415.3,592.7,393.5,586.5z"/>
	<path class="st0" d="M200.2,551.1c1.1,3.3-2.1,2.7-2.7,4.3c-0.9,2.7,7.6,23.4,8.8,23.7c1.4,0.3,2-1.2,2.5-2.1
		c1.4-2.5,7.8-19.6,7.3-21.5c-0.1-0.6-4.7-2.5-2.8-4.4c0.5-0.5,12.2,0,13.1,0.9c2,2.2-4.9,2.2-5.1,3.8c-5,10-8,22.3-12.8,32.1
		c-1.7,3.6-3.1,4.6-6.5,1.8L188.3,557c-1.4-2.9-5.9-1.7-4.9-5.8H200.2z"/>
	<path class="st0" d="M255.4,554.9v29.5c0,2.2,3.6,3.5,5.6,3.3c-0.2,4.9-5.6,1.7-8.9,1.8c-1.8,0-8.4,1.6-8.9,1
		c-0.2-0.2-0.3-2.3,0.6-2.9c1-0.7,4.1-0.6,4.1-0.9v-31.8l-8.4,0.5c-2.7,0.4-3.4,7.8-5.1,7c-2.1-1-1.1-11.2-0.5-11.2H268
		c2.1,0,2.1,11.2,0,11.2c-1.4,0-2-5.2-3.8-6.5C261.9,554.3,258.1,555,255.4,554.9z"/>
	<path class="st0" d="M312.4,586.7c4.7-0.3,10.2,1.4,13.5-2.8c1.8-2.4,0.3-4.7,5.2-3.7c0.4,0.4-2,10.3-3.3,10.3h-28.5
		c-1-4.5,4-2.6,4.7-6.1c0.5-2.5,0.4-27.4-0.5-28.6c-0.5-0.6-4.9-1.8-5.2-3.7c3.9,0,13.8-1.9,17.1-0.8c5.1,1.6-3.1,4.5-3.1,5V586.7z"
		/>
	<path class="st0" d="M370.4,562.4c-3,2.9-3.9-5.7-5.3-6.6c-2.2-1.4-6.2-0.7-8.7-0.8v30.4c0,1.2,5.7,0.7,3.7,5.1
		c-3.4,0.7-6.7-0.6-9.8-0.7c-2-0.1-6.5,2.5-6.6-1.1c1.1-1.6,4.2-1.6,4.2-1.9v-31.8c-3.2-0.1-7.2-0.5-9.4,2.3
		c-1.5,1.9-0.8,5.1-4.6,4.2l0.9-10.3c1.6-0.8,3.4,0.9,3.7,0.9c8.5,0.8,17.1-1,25.2-0.9c1.7,0,5.1-0.5,6.1,0.9
		C370.6,552.8,370.8,562,370.4,562.4z"/>
	<path class="st0" d="M167,551.1c1,0.1,7.2,2.5,8,3.2c12,10.9-3.4,24-15.9,21.1c0,1.5,0.5,10.8,1,11.2c0.7,0.7,4.8-1.8,4.2,3.7
		c-5.2-2.4-11,0.5-16.4-0.9c-0.5-2.5,2.4-2.2,3.1-4c1.2-2.9,1.1-28.8-0.6-30.4c-0.6-0.6-2.8-0.3-3.5-1.7c-0.4-0.8,1.1-2.3,1.4-2.3
		C153.8,551.1,161.9,550.4,167,551.1z M160,572.6c14.1,0.7,14.3-19.9,0-17.8V572.6z"/>
	<path class="st1" d="M308.7,238.8c3.1,2.1,2.1,1.1,6.3,2.6c10.3,3.5,23.1,19.3,26.9,29.2c7.9,20.6,6,58.9-21,63.2
		c-31.6,5-55.3-33.4-52.3-61.6c1.1-10.4,7.1-21.4,15.3-27.7c4.5,0.1,0.7,6.8,1.4,7.5c2.9,1.1,16.9-3.1,14-6.5
		c-0.5-0.6-7.4,0-5.6-6.6C296.2,239.3,307.6,238.1,308.7,238.8z M327.3,270.5c6.1-3.9-11.2-27.5-18.6-20
		C302.5,256.7,320.8,274.6,327.3,270.5z M279.7,260.3c-1.2-1.4-4.5,4.2-4.8,5c-11.4,23.6,13.3,68.6,42.2,63.3
		c0.3-3.2-3.3-2.6-5.3-3.5c-14.5-6.8-29.2-26.4-32.8-42.1C277.1,274.6,279.2,268.6,279.7,260.3z"/>
	<path class="st2" d="M368.5,210.7c5.1,1.6,12.7,1.6,17.8,0c3.8,0.2,8.9,0.5,12.6,0.9c1.4,0.2,2.8,0.7,1.4,1.9l-61.7,3.7
		c-7.5-0.1-15,0.1-22.4,0c0.3-0.7-0.7-2.1,1.4-1.9C334.6,213.9,351.5,211.2,368.5,210.7z"/>
	<path class="st3" d="M338.6,217.3c0.6,0,6.4-0.7,5.1,0.9c-9-0.3-18.1,0.4-27.1,0c-2.8-0.1-0.6-0.5-0.5-0.9
		C323.6,217.4,331.1,217.2,338.6,217.3z"/>
	<path class="st1" d="M386.3,210.7c-5,1.6-12.7,1.6-17.8,0C374.3,210.6,380.6,210.5,386.3,210.7z"/>
	<path class="st2" d="M350.2,145.7c-9.4,7.7-19.2,16.2-27.8,23.7c-14.6,12.7-28.5,26.9-44.6,37.2c21.5-27.8,49.9-52,80.9-68.7
		C357.3,141.1,353,143.4,350.2,145.7z"/>
	<path class="st0" d="M355.4,469.8v2.8V510c0,0.6,0,1.2,0,1.9l-1.9,7l0-50C353.7,468.7,355.4,469.8,355.4,469.8z"/>
	<path class="st4" d="M279.7,260.3c-0.5,8.3-2.6,14.3-0.7,22.6c3.5,15.6,18.2,35.3,32.8,42.1c2,0.9,5.6,0.4,5.3,3.5
		c-29,5.3-53.6-39.7-42.2-63.3C275.2,264.5,278.5,258.9,279.7,260.3z"/>
	<path class="st5" d="M327.3,270.5c-6.5,4.1-24.7-13.8-18.6-20C316,243,333.3,266.6,327.3,270.5z"/>
	<path class="st0" d="M355.4,510v-37.4C355.4,484.8,356.1,497.9,355.4,510z"/>
</g>
</svg>
